ModelForces
version=1
nRows=4
nColumns=157
inDegrees=no

This file contains the forces exerted on a model during a simulation.

A force is a generalized force, meaning that it can be either a force (N) or a torque (Nm).

Units are S.I. units (second, meters, Newtons, ...)
Angles are in degrees.

endheader
time	glut_med1_r	glut_med2_r	glut_med3_r	glut_min1_r	glut_min2_r	glut_min3_r	semimem_r	semiten_r	bifemlh_r	bifemsh_r	sar_r	add_long_r	add_brev_r	add_mag1_r	add_mag2_r	add_mag3_r	tfl_r	pect_r	grac_r	glut_max1_r	glut_max2_r	glut_max3_r	iliacus_r	psoas_r	quad_fem_r	gem_r	peri_r	rect_fem_r	vas_med_r	vas_int_r	vas_lat_r	med_gas_r	lat_gas_r	soleus_r	tib_post_r	flex_dig_r	flex_hal_r	tib_ant_r	per_brev_r	per_long_r	per_tert_r	ext_dig_r	ext_hal_r	glut_med1_l	glut_med2_l	glut_med3_l	glut_min1_l	glut_min2_l	glut_min3_l	semimem_l	semiten_l	bifemlh_l	bifemsh_l	sar_l	add_long_l	add_brev_l	add_mag1_l	add_mag2_l	add_mag3_l	tfl_l	pect_l	grac_l	glut_max1_l	glut_max2_l	glut_max3_l	iliacus_l	psoas_l	quad_fem_l	gem_l	peri_l	rect_fem_l	vas_med_l	vas_int_l	vas_lat_l	med_gas_l	lat_gas_l	soleus_l	tib_post_l	flex_dig_l	flex_hal_l	tib_ant_l	per_brev_l	per_long_l	per_tert_l	ext_dig_l	ext_hal_l	ercspn_r	ercspn_l	intobl_r	intobl_l	extobl_r	extobl_l	femur_lat_meniscii_r.femur_lat_r.force.X	femur_lat_meniscii_r.femur_lat_r.force.Y	femur_lat_meniscii_r.femur_lat_r.force.Z	femur_lat_meniscii_r.femur_lat_r.torque.X	femur_lat_meniscii_r.femur_lat_r.torque.Y	femur_lat_meniscii_r.femur_lat_r.torque.Z	femur_lat_meniscii_r.meniscus_lat_r.force.X	femur_lat_meniscii_r.meniscus_lat_r.force.Y	femur_lat_meniscii_r.meniscus_lat_r.force.Z	femur_lat_meniscii_r.meniscus_lat_r.torque.X	femur_lat_meniscii_r.meniscus_lat_r.torque.Y	femur_lat_meniscii_r.meniscus_lat_r.torque.Z	femur_med_meniscii_r.femur_med_r.force.X	femur_med_meniscii_r.femur_med_r.force.Y	femur_med_meniscii_r.femur_med_r.force.Z	femur_med_meniscii_r.femur_med_r.torque.X	femur_med_meniscii_r.femur_med_r.torque.Y	femur_med_meniscii_r.femur_med_r.torque.Z	femur_med_meniscii_r.meniscus_med_r.force.X	femur_med_meniscii_r.meniscus_med_r.force.Y	femur_med_meniscii_r.meniscus_med_r.force.Z	femur_med_meniscii_r.meniscus_med_r.torque.X	femur_med_meniscii_r.meniscus_med_r.torque.Y	femur_med_meniscii_r.meniscus_med_r.torque.Z	femur_med_tibia_r.tibia_upper_r.force.X	femur_med_tibia_r.tibia_upper_r.force.Y	femur_med_tibia_r.tibia_upper_r.force.Z	femur_med_tibia_r.tibia_upper_r.torque.X	femur_med_tibia_r.tibia_upper_r.torque.Y	femur_med_tibia_r.tibia_upper_r.torque.Z	femur_med_tibia_r.femur_med_r.force.X	femur_med_tibia_r.femur_med_r.force.Y	femur_med_tibia_r.femur_med_r.force.Z	femur_med_tibia_r.femur_med_r.torque.X	femur_med_tibia_r.femur_med_r.torque.Y	femur_med_tibia_r.femur_med_r.torque.Z	femur_lat_tibia_r.tibia_upper_r.force.X	femur_lat_tibia_r.tibia_upper_r.force.Y	femur_lat_tibia_r.tibia_upper_r.force.Z	femur_lat_tibia_r.tibia_upper_r.torque.X	femur_lat_tibia_r.tibia_upper_r.torque.Y	femur_lat_tibia_r.tibia_upper_r.torque.Z	femur_lat_tibia_r.femur_lat_r.force.X	femur_lat_tibia_r.femur_lat_r.force.Y	femur_lat_tibia_r.femur_lat_r.force.Z	femur_lat_tibia_r.femur_lat_r.torque.X	femur_lat_tibia_r.femur_lat_r.torque.Y	femur_lat_tibia_r.femur_lat_r.torque.Z	aACL_R	pACL_R	aPCL_R	pPCL_R	aMCL_R	mMCL_R	pMCL_R	aLCL_R	mLCL_R	pLCL_R	ground_prescribedForce_fx	ground_prescribedForce_fy	ground_prescribedForce_fz	ground_prescribedForce_px	ground_prescribedForce_py	ground_prescribedForce_pz
      0.00000000	     37.48087652	     28.28714471	     30.25598133	     13.28977762	     14.47626353	     15.91713841	      0.00000000	     14.93394371	     14.72974071	     24.18580536	      7.29249363	     27.93927808	     20.68957741	     14.51222487	     12.16230296	     19.66717628	     11.98515203	     11.16605282	      6.67712316	     18.12681708	     27.55933735	     20.56469162	     63.94906620	     55.74758807	     18.09791099	      9.16719286	     20.03897647	    222.00615091	     78.08105591	    112.09656335	    109.79150584	     10.50275607	      9.82718344	    152.72720615	     92.44658902	     14.93332009	     15.26895791	     41.82851940	     21.62523106	     46.40594865	      8.86060096	     25.04818486	      7.96045570	     37.48087652	     28.28714471	     30.25598133	     13.28977762	     14.47626353	     15.91713841	     42.06683902	     20.39635155	     37.67631238	     36.01822118	      7.59254209	     27.93927808	     20.68957741	     14.51222487	     12.16230296	     19.66717628	     12.58139899	     11.16605282	      7.78214370	     18.12681708	     27.55933735	     20.56469162	     63.94906620	     55.74758807	     18.09791099	      9.16719286	     20.03897647	     52.59637061	     32.48786114	     37.22481259	     39.87514307	     67.71424671	     31.64857027	    152.72720615	     92.44658902	     14.93332009	     15.26895791	     41.82851940	     21.62523106	     46.40594865	      8.86060096	     25.04818486	      7.96045570	    124.99446086	    124.99446086	     44.97041513	     44.97041513	     60.98287244	     60.98287244	     82.06651735	    -20.57321461	      1.32625263	     -0.00932964	      1.90435437	     33.26068052	    -82.06651735	     20.57321461	     -1.32625263	     -0.61873248	     -2.35115890	     -1.32810305	      0.00000000	      0.00000000	      0.00000000	      0.00000000	      0.00000000	      0.00000000	      0.00000000	      0.00000000	      0.00000000	      0.00000000	      0.00000000	      0.00000000	   -483.34235029	    -22.90318186	    230.23142098	     -2.29683747	     12.10757306	     -3.62339923	    483.34235029	     22.90318186	   -230.23142098	     93.58299608	     -8.19292073	    195.65680745	      0.00000000	      0.00000000	      0.00000000	      0.00000000	      0.00000000	      0.00000000	      0.00000000	      0.00000000	      0.00000000	      0.00000000	      0.00000000	      0.00000000	      3.75010814	     12.22582684	   1302.60579461	    811.35279875	     36.06478367	      2.10632205	      0.00000000	      0.00000000	      0.00000000	      0.00000000	      0.00000000	   -110.00000000	      0.00000000	      0.03000000	     -0.03000000	      0.00000000
      0.00063894	     37.47670788	     28.28017429	     30.24976699	     13.28124155	     14.47151986	     15.91528162	      0.00000000	     15.23481250	     15.10300474	     25.29342596	      7.39771295	     27.93363351	     20.66966529	     14.50868896	     12.16019203	     19.66544410	     11.77108913	     11.16070603	      6.88673238	     18.12310689	     27.55378663	     20.56120990	     63.93950345	     55.74209627	     18.09161494	      9.16633619	     20.03822724	    225.85973031	     81.71690412	    116.50829180	    113.42766003	      9.77741564	      9.39261624	    150.49830795	     92.34881046	     14.96492956	     15.27727085	     42.54708577	     21.46072068	     46.20036553	      9.00046215	     25.17837619	      8.01852284	     37.47670788	     28.28017429	     30.24976699	     13.28124155	     14.47151986	     15.91528162	     42.06498429	     20.39383750	     37.67424061	     36.00607161	      7.58672414	     27.93363351	     20.66966529	     14.50868896	     12.16019203	     19.66544410	     12.58096510	     11.16070603	      7.77881210	     18.12310689	     27.55378663	     20.56120990	     63.93950345	     55.74209627	     18.09161494	      9.16633619	     20.03822724	     52.59323185	     32.48328311	     37.22027609	     39.87052736	     67.71242292	     31.64770266	    152.72153127	     92.44515963	     14.93360795	     15.26915167	     41.82556285	     21.62417127	     46.40489109	      8.85947773	     25.04617518	      7.95964945	    124.92001762	    124.92001762	     44.96342627	     44.96342627	     60.97531140	     60.97531140	    281.93020927	    -86.58202217	     36.48135927	    -12.61725372	      6.79096035	    114.37457553	   -281.93020927	     86.58202217	    -36.48135927	     -2.26111300	     -9.19877044	     -5.10814312	      0.00000000	      0.00000000	      0.00000000	      0.00000000	      0.00000000	      0.00000000	      0.00000000	      0.00000000	      0.00000000	      0.00000000	      0.00000000	      0.00000000	   -782.42514508	    -21.48766188	    345.10740001	     -3.35177381	     18.57101925	     -6.45221944	    782.42514508	     21.48766188	   -345.10740001	    140.12845412	    -12.96417672	    316.90047951	      0.00000000	      0.00000000	      0.00000000	      0.00000000	      0.00000000	      0.00000000	      0.00000000	      0.00000000	      0.00000000	      0.00000000	      0.00000000	      0.00000000	    -22.65974782	    -26.95504671	   1261.54291844	    715.25828837	    -15.50294171	    -54.37921092	      0.00000000	      0.00000000	      0.00000000	      0.00000000	      0.00000000	   -110.00000000	      0.00000000	      0.03000000	     -0.03000000	      0.00000000
      0.00141584	     37.46049856	     28.25360602	     30.22593624	     13.25057901	     14.45367459	     15.90806712	      0.00000000	     16.23125192	     16.36147737	     29.16350925	      7.82636950	     27.91197824	     20.60154919	     14.49520741	     12.15205971	     19.65868603	     11.20118538	     11.14102312	      7.60681909	     18.10887934	     27.53249068	     20.54778806	     63.90271158	     55.72070982	     18.06797747	      9.16300281	     20.03528215	    235.77107420	     91.01386374	    126.74730884	    122.45410472	      8.04783930	      8.31474824	    144.11834345	     92.20794380	     15.10116668	     15.34090094	     44.78149407	     20.88078833	     45.49454104	      9.36787347	     25.50534224	      8.17865922	     37.46049856	     28.25360602	     30.22593624	     13.25057901	     14.45367459	     15.90806712	     42.05770164	     20.38407847	     37.66611830	     35.96038542	      7.56621567	     27.91197824	     20.60154919	     14.49520741	     12.15205971	     19.65868603	     12.57925992	     11.14102312	      7.76645313	     18.10887934	     27.53249068	     20.54778806	     63.90271158	     55.72070982	     18.06797747	      9.16300281	     20.03528215	     52.58093430	     32.46556213	     37.20266627	     39.85259471	     67.70524295	     31.64428715	    152.69922338	     92.43952701	     14.93471939	     15.26989219	     41.81399773	     21.62001212	     46.40072464	      8.85512192	     25.03832737	      7.95650669	    124.65071333	    124.65071333	     44.93642544	     44.93642544	     60.94618368	     60.94618368	    359.88166384	   -122.65898193	     84.76562973	    -31.26259390	      8.90502871	    146.01722573	   -359.88166384	    122.65898193	    -84.76562973	     -2.91113845	    -13.00196800	     -6.85736470	      0.00000000	      0.00000000	      0.00000000	      0.00000000	      0.00000000	      0.00000000	      0.00000000	      0.00000000	      0.00000000	      0.00000000	      0.00000000	      0.00000000	   -817.67367762	     -8.67557323	    337.52293790	     -3.18126672	     18.61378592	     -7.23380496	    817.67367762	      8.67557323	   -337.52293790	    136.91393015	    -13.28593526	    331.34777944	      0.00000000	      0.00000000	      0.00000000	      0.00000000	      0.00000000	      0.00000000	      0.00000000	      0.00000000	      0.00000000	      0.00000000	      0.00000000	      0.00000000	    -35.69724542	    -52.44406266	   1231.89544980	    664.29672159	    -24.36279337	    -67.16482299	      0.00000000	      0.00000000	      0.00000000	      0.00000000	      0.00000000	   -110.00000000	      0.00000000	      0.03000000	     -0.03000000	      0.00000000
      0.00219273	     37.43223844	     28.20838113	     30.18507623	     13.20183978	     14.42376473	     15.89550049	      0.00000000	     17.74199780	     18.29042149	     34.41210494	      8.49597931	     27.87482837	     20.49890686	     14.47224980	     12.13803883	     19.64685553	     10.51718508	     11.10885151	      8.63056357	     18.08448464	     27.49595506	     20.52462989	     63.83937775	     55.68335563	     18.02845302	      9.15718633	     20.03007925	    246.54619410	    102.40197153	    137.71456278	    133.56012294	      6.22315489	      7.08712113	    135.65841673	     92.13367610	     15.33597428	     15.47029036	     48.04142549	     20.02103594	     44.44447630	      9.83898797	     25.89730864	      8.38618687	     37.43223844	     28.20838113	     30.18507623	     13.20183978	     14.42376473	     15.89550049	     42.04485313	     20.36709915	     37.65181501	     35.88384953	      7.53429209	     27.87482837	     20.49890686	     14.47224980	     12.13803883	     19.64685553	     12.57624831	     11.10885151	      7.74607393	     18.08448464	     27.49595506	     20.52462989	     63.83937775	     55.68335563	     18.02845302	      9.15718633	     20.03007925	     52.55929585	     32.43483328	     37.17202636	     39.82136028	     67.69253486	     31.63824227	    152.65981136	     92.42954610	     14.93663587	     15.27115137	     41.79368782	     21.61267903	     46.39334392	      8.84755241	     25.02458163	      7.95101435	    124.21922906	    124.21922906	     44.88971592	     44.88971592	     60.89596479	     60.89596479	    391.67591530	   -139.25759754	    124.36504214	    -46.84827913	      9.90065638	    158.89382175	   -391.67591530	    139.25759754	   -124.36504214	     -3.08315562	    -15.19461049	     -7.56739791	      0.00000000	      0.00000000	      0.00000000	      0.00000000	      0.00000000	      0.00000000	      0.00000000	      0.00000000	      0.00000000	      0.00000000	      0.00000000	      0.00000000	   -733.09250133	      1.31861484	    290.23072914	     -2.65948166	     16.33048295	     -6.78477838	    733.09250133	     -1.31861484	   -290.23072914	    117.64362940	    -11.75403836	    297.20193085	      0.00000000	      0.00000000	      0.00000000	      0.00000000	      0.00000000	      0.00000000	      0.00000000	      0.00000000	      0.00000000	      0.00000000	      0.00000000	      0.00000000	    -39.23987274	    -65.33783756	   1207.59389678	    632.30398484	    -20.37277439	    -66.09003325	      0.00000000	      0.00000000	      0.00000000	      0.00000000	      0.00000000	   -110.00000000	      0.00000000	      0.03000000	     -0.03000000	      0.00000000
